<svg xmlns="http://www.w3.org/2000/svg" width="16" height="13.02" viewBox="0 0 16 13.02"><defs><style>.a{fill:#1a2a41;}</style></defs><path class="a" d="M17.413,6.043a6.636,6.636,0,0,1-1.885.519,3.294,3.294,0,0,0,1.444-1.817,6.523,6.523,0,0,1-2.085.8A3.282,3.282,0,0,0,9.208,7.785a3.214,3.214,0,0,0,.085.749A9.3,9.3,0,0,1,2.525,5.1,3.289,3.289,0,0,0,3.546,9.487a3.206,3.206,0,0,1-1.492-.41v.041a3.285,3.285,0,0,0,2.634,3.221,3.3,3.3,0,0,1-.865.115,3.1,3.1,0,0,1-.617-.061,3.288,3.288,0,0,0,3.068,2.282A6.581,6.581,0,0,1,2.2,16.082a6.654,6.654,0,0,1-.783-.047A9.175,9.175,0,0,0,6.438,17.52a9.284,9.284,0,0,0,9.348-9.351c0-.142,0-.285-.01-.424A6.682,6.682,0,0,0,17.413,6.043Z" transform="translate(-1.413 -4.5)"/></svg>